# xmcd
#
# Track frame offsets:
#	150
#	20315
#	41525
#	55767
#	78410
#	101152
#	124690
#	140470
#	158175
#	180417
#
# Disc length: 2661 seconds
#
# Revision: 0
# Processed by: cddbd v1.4PL0 Copyright (c) Steve Scherf et al.
# Submitted via: dBpowerAMP V4.0
#
DISCID=780a630a
DTITLE=Harun Kolcak - Teslim Oldum
DYEAR=1900
DGENRE=Pop
TTITLE0=Ölürüm Elinde
TTITLE1=Gitme Seviyorum
TTITLE2=Günahim Boynuna
TTITLE3=Dogumgünüm
TTITLE4=Yetmiyor Geceler
TTITLE5=Teslim Oldum
TTITLE6=Benim Meselem
TTITLE7=Yeniden
TTITLE8=Ihanet Edemem
TTITLE9=Gece
EXTD=
EXTT0=
EXTT1=
EXTT2=
EXTT3=
EXTT4=
EXTT5=
EXTT6=
EXTT7=
EXTT8=
EXTT9=
PLAYORDER=
